<?xml version="1.0" encoding="UTF-8"?> <svg xmlns="http://www.w3.org/2000/svg" xmlns:xlink="http://www.w3.org/1999/xlink" version="1.1" id="Calque_1" x="0" y="0" viewBox="0 0 340 168" style="enable-background:new 0 0 340 168" xml:space="preserve"><style>.st1{fill:#a3d5cc}.st2{fill:#f0816a}.st4{fill:#facdba}</style><path d="m86.4 63.8-14.3-4.9 8.1 20.8zm21.9 22.6 17.7-9-24.4-8.4zM45.1 49.5l-31.9-11v57.1l20-15.3z" style="fill:#6a9199"></path><path class="st1" d="m124.3 127.7 1.7.1v-10.7l-6.3-1.2zm-98-29.6-13.1-2.5v20.6l5.9.6zm-13.1-79v19.4l31.9 11 11.7-30.3 15.3 39.7 14.3 4.9L93 46.7l8.6 22.3 24.4 8.4V19.1z"></path><path class="st1" d="m101.6 69-15.2-5.2-6.2 15.9-8.1-20.8-27-9.4-11.9 30.8 6.7 6.1 10.4-9L77.4 102l30.9-15.6z"></path><path class="st2" d="m50.3 77.4-24 20.7 59.4 11.3z"></path><path d="M119.7 115.9 26.3 98.1l-7.2 18.7 105.2 10.9zm-47.6-57L56.8 19.2 45.1 49.5zM101.6 69 93 46.7l-6.6 17.1z" style="fill:#fff"></path><path class="st2" d="m108.3 86.4 5.7 14.7 12 6.1V77.4z"></path><path class="st4" d="M108.3 86.4 77.4 102l8.3 7.4 28.3-8.3z"></path><path class="st2" d="m114 101.1-28.3 8.3 34 6.5z"></path><path class="st4" d="m119.7 115.9 6.3 1.2v-9.9l-12-6.1zM39.9 86.4l-6.7-6.1-6.9 17.8z"></path><path class="st2" d="m33.2 80.3-20 15.3 13.1 2.5z"></path><path style="fill:#00a4a3" d="M13.2 116.2v15.9H126v-4.3z"></path><defs><path id="SVGID_1_" d="M-59-48.9h459v261H-59z"></path></defs><clipPath id="SVGID_00000088095188612506914600000013763799882927093948_"><use xlink:href="#SVGID_1_" style="overflow:visible"></use></clipPath><path style="clip-path:url(#SVGID_00000088095188612506914600000013763799882927093948_);fill:#f0816a" d="M21.4 139.8c1.7 0 3.3.5 4.7 1.5.1.1.1.3.1.3v.1c0 .3-.2.5-.7.6l-1.5-.8c-1.1-.4-2-.5-2.7-.5-2.2 0-4.2 1-5.8 3.1-.8 1.4-1.2 2.7-1.2 4 0 2.6 1.2 4.7 3.7 6.2 1.1.6 2.2.9 3.3.9h.1c1.4 0 2.7-.4 4.1-1.3h.2c.4.1.6.3.6.5v.1c0 .5-.9 1-2.8 1.6-.6.2-1.2.3-1.9.3h-.2c-2.7 0-5-1.3-6.9-3.8-.9-1.5-1.3-3-1.3-4.5 0-2.9 1.3-5.2 3.9-7 1.4-.9 2.8-1.3 4.3-1.3"></path><defs><path id="SVGID_00000154417067878199905380000007042994473148965766_" d="M-59-48.9h459v261H-59z"></path></defs><clipPath id="SVGID_00000054985403878067469030000013800272865788666271_"><use xlink:href="#SVGID_00000154417067878199905380000007042994473148965766_" style="overflow:visible"></use></clipPath><path style="clip-path:url(#SVGID_00000054985403878067469030000013800272865788666271_);fill:#f0816a" d="M37.5 139.8c2.8 0 5.1 1.3 7 3.9.8 1.5 1.3 2.9 1.3 4.4 0 2.8-1.3 5.1-3.8 6.9-1.4.9-2.9 1.4-4.4 1.4h-.2c-2.8 0-5.2-1.3-7-4-.8-1.3-1.2-2.8-1.2-4.3 0-2.6 1.2-4.9 3.5-6.7 1.5-1.1 3.1-1.6 4.8-1.6m-7.2 8.4c0 2.3 1 4.2 3 5.8 1.3.9 2.6 1.3 4 1.3h.2c2.2 0 4.1-1 5.7-3 .9-1.3 1.3-2.7 1.3-4.2 0-2.6-1.2-4.6-3.5-6.1-1.2-.7-2.4-1-3.6-1-2.4 0-4.3 1-5.8 3.1-.8 1.1-1.3 2.5-1.3 4.1"></path><defs><path id="SVGID_00000133514090875654814420000016156030123928960908_" d="M-59-48.9h459v261H-59z"></path></defs><clipPath id="SVGID_00000046304444726530894570000008249229204542004645_"><use xlink:href="#SVGID_00000133514090875654814420000016156030123928960908_" style="overflow:visible"></use></clipPath><path style="clip-path:url(#SVGID_00000046304444726530894570000008249229204542004645_);fill:#f0816a" d="M49 139.8h.2c.3 0 .5.3.7 1l5.9 13.3c.4-.4 1.8-3.6 4.4-9.4l2.2-4.7c.1-.1.2-.1.3-.1h.2c.3 0 .4.2.5.7v15.2c-.1.4-.3.6-.6.6-.4-.1-.6-.2-.6-.5v-11.6h-.5c-3.4 7.8-5.2 11.7-5.3 11.9-.2.1-.3.2-.5.2-.4 0-.8-.6-1.1-1.7l-4.6-10.3h-.5v11.5c0 .3-.2.5-.6.5-.3 0-.5-.2-.6-.6v-15.2c.1-.6.2-.8.5-.8"></path><defs><path id="SVGID_00000168110955548312480650000010847736483354926990_" d="M-59-48.9h459v261H-59z"></path></defs><clipPath id="SVGID_00000096739134956115342120000000282762033737449899_"><use xlink:href="#SVGID_00000168110955548312480650000010847736483354926990_" style="overflow:visible"></use></clipPath><path style="clip-path:url(#SVGID_00000096739134956115342120000000282762033737449899_);fill:#f0816a" d="M66.8 139.8h.2c.3 0 .5.3.7 1l5.9 13.3c.4-.4 1.8-3.6 4.4-9.4l2.2-4.7c.1-.1.2-.1.3-.1h.2c.3 0 .4.2.5.7v15.2c-.1.4-.3.6-.6.6-.4-.1-.6-.2-.6-.5v-11.6h-.5c-3.4 7.8-5.2 11.7-5.3 11.9-.2.1-.3.2-.5.2-.4 0-.8-.6-1.1-1.7L68 144.4h-.5v11.5c0 .3-.2.5-.6.5-.3 0-.5-.2-.6-.6v-15.2c.1-.6.2-.8.5-.8"></path><defs><path id="SVGID_00000091706730503703342360000005104503907299109310_" d="M-59-48.9h459v261H-59z"></path></defs><clipPath id="SVGID_00000084500801443113813080000002571698111320606343_"><use xlink:href="#SVGID_00000091706730503703342360000005104503907299109310_" style="overflow:visible"></use></clipPath><path style="clip-path:url(#SVGID_00000084500801443113813080000002571698111320606343_);fill:#f0816a" d="M84.4 139.8h.1c.4.1.5.2.5.4v9.6c0 2.2.6 3.7 1.9 4.4.8.6 1.7.9 2.7.9 1.9 0 3.3-1 4.3-2.9.2-.6.3-1.2.3-1.9v-10c.1-.4.2-.6.5-.6h.1c.4.1.5.2.5.5v10.5c0 1.7-.8 3.2-2.5 4.5-1 .7-2.1 1-3.1 1h-.3c-1.8 0-3.3-.9-4.6-2.6-.6-.9-.9-2.1-.9-3.5v-9.7c.1-.4.2-.6.5-.6"></path><defs><path id="SVGID_00000051360648062185487070000001577874610965057931_" d="M-59-48.9h459v261H-59z"></path></defs><clipPath id="SVGID_00000008831707823073571460000005109255195903017874_"><use xlink:href="#SVGID_00000051360648062185487070000001577874610965057931_" style="overflow:visible"></use></clipPath><path style="clip-path:url(#SVGID_00000008831707823073571460000005109255195903017874_);fill:#f0816a" d="M98.3 139.8h.2c.3 0 .5.3.7.8.5.5 4 5.1 10.5 13.6v-13.9c.1-.4.2-.5.5-.5h.1c.3 0 .4.2.5.6v15.4c0 .3-.2.5-.7.6-.2 0-.7-.5-1.3-1.5l-9.9-12.7v13.6c0 .3-.2.4-.6.5-.3 0-.5-.2-.6-.6v-15.1c.2-.5.3-.8.6-.8"></path><defs><path id="SVGID_00000027602890274316348540000003135886927271876030_" d="M-59-48.9h459v261H-59z"></path></defs><clipPath id="SVGID_00000101794402837748930330000009275666675249106599_"><use xlink:href="#SVGID_00000027602890274316348540000003135886927271876030_" style="overflow:visible"></use></clipPath><path style="clip-path:url(#SVGID_00000101794402837748930330000009275666675249106599_);fill:#f0816a" d="M119.5 139.9c.4 0 .7.5.9 1.4 3.6 9.4 5.4 14.2 5.5 14.4v.1c0 .3-.2.5-.6.5-.4 0-.6-.4-.8-1.3l-2.1-5.5h-5.7l-2.5 6.6c-.1.1-.3.2-.4.2h-.1c-.4-.1-.6-.3-.6-.6l1.5-4.1c2.7-7 4.1-10.8 4.3-11.5.3-.1.5-.2.6-.2m-.2 2.8-2.1 5.7h4.6v-.4l-2-5.3h-.5z"></path><defs><path id="SVGID_00000092455666167545930710000005868743656794090683_" d="M-59-48.9h459v261H-59z"></path></defs><clipPath id="SVGID_00000183961569455043792200000006352109341822967710_"><use xlink:href="#SVGID_00000092455666167545930710000005868743656794090683_" style="overflow:visible"></use></clipPath><path style="clip-path:url(#SVGID_00000183961569455043792200000006352109341822967710_);fill:#f0816a" d="M128.4 139.8h.1c.4.1.5.2.5.4v9.6c0 2.2.6 3.7 1.9 4.4.8.6 1.7.9 2.7.9 1.9 0 3.3-1 4.3-2.9.2-.6.3-1.2.3-1.9v-10c.1-.4.2-.6.5-.6h.1c.4.1.5.2.5.5v10.5c0 1.7-.8 3.2-2.5 4.5-1 .7-2.1 1-3.1 1h-.3c-1.8 0-3.3-.9-4.6-2.6-.6-.9-.9-2.1-.9-3.5v-9.7c.1-.4.2-.6.5-.6"></path><defs><path id="SVGID_00000047056850229194448290000012000253307588657799_" d="M-59-48.9h459v261H-59z"></path></defs><clipPath id="SVGID_00000103962870272633661230000014651555480441555871_"><use xlink:href="#SVGID_00000047056850229194448290000012000253307588657799_" style="overflow:visible"></use></clipPath><path style="clip-path:url(#SVGID_00000103962870272633661230000014651555480441555871_);fill:#f0816a" d="M142.3 139.8h11.1c.4.1.5.2.5.5v.2c0 .3-.2.4-.7.5h-4.8v14.9c0 .3-.2.5-.6.5-.3 0-.5-.2-.6-.6V141h-4.9c-.4-.1-.6-.3-.6-.6.2-.4.4-.6.6-.6"></path><defs><path id="SVGID_00000081618836564500562600000013236054044231555969_" d="M-59-48.9h459v261H-59z"></path></defs><clipPath id="SVGID_00000127750409403175622180000011526852431488919450_"><use xlink:href="#SVGID_00000081618836564500562600000013236054044231555969_" style="overflow:visible"></use></clipPath><path style="clip-path:url(#SVGID_00000127750409403175622180000011526852431488919450_);fill:#f0816a" d="M156.9 139.8h-.1 9.1c.3 0 .5.2.6.7-.1.4-.3.5-.7.5h-8.6v6.7h6.3c.2 0 .4.2.5.6 0 .2-.2.4-.5.6h-6.4v6.4h8.8c.2 0 .4.2.5.6-.1.4-.3.5-.5.5h-9.3c-.4-.1-.6-.3-.6-.6v-15.4c.1-.4.4-.6.9-.6zm4.5-4.7c.4.1.6.3.6.6 0 .2-.3.6-1 1.4-.4.6-.7.9-.9.9h-.3c-.2 0-.4-.2-.5-.7 0-.1.4-.7 1.4-1.7.3-.4.5-.5.7-.5"></path><defs><path id="SVGID_00000031909692626453620590000014609771413653305265_" d="M-59-48.9h459v261H-59z"></path></defs><clipPath id="SVGID_00000072970084786704407390000003724454670882614428_"><use xlink:href="#SVGID_00000031909692626453620590000014609771413653305265_" style="overflow:visible"></use></clipPath><path style="clip-path:url(#SVGID_00000072970084786704407390000003724454670882614428_);fill:#f0816a" d="M175.8 139.8h-.1 2.9c2.5 0 4.6 1.1 6.5 3.3 1.2 1.5 1.7 3.2 1.7 5.2 0 2.6-1.2 4.9-3.5 6.7-1.5 1-3 1.5-4.7 1.5h-3.1c-.4-.1-.6-.3-.6-.6v-15.4c.1-.6.3-.7.9-.7zm.3 1.1v14.3h2.2c3 0 5.2-1.5 6.7-4.4.4-1 .6-1.9.6-2.8 0-2.2-1-4.1-2.9-5.7-1.2-1-3-1.4-5.3-1.4h-1.3z"></path><defs><path id="SVGID_00000053519282368064140250000008128075270355768977_" d="M-59-48.9h459v261H-59z"></path></defs><clipPath id="SVGID_00000175308771085937399070000003483298719514990248_"><use xlink:href="#SVGID_00000053519282368064140250000008128075270355768977_" style="overflow:visible"></use></clipPath><path style="clip-path:url(#SVGID_00000175308771085937399070000003483298719514990248_);fill:#f0816a" d="M190.1 139.8h-.1 9.2c.3 0 .5.2.6.7-.1.4-.3.5-.7.5h-8.6v6.7h6.4c.2 0 .4.2.5.6 0 .2-.2.4-.5.6h-6.4v6.4h8.8c.2 0 .4.2.5.6-.1.4-.3.5-.5.5h-9.4c-.4-.1-.6-.3-.6-.6v-15.5c0-.4.3-.6.8-.5z"></path><defs><path id="SVGID_00000098926257018105907490000016624343071584288431_" d="M-59-48.9h459v261H-59z"></path></defs><clipPath id="SVGID_00000013188542638163111030000010010203473164053652_"><use xlink:href="#SVGID_00000098926257018105907490000016624343071584288431_" style="overflow:visible"></use></clipPath><path style="clip-path:url(#SVGID_00000013188542638163111030000010010203473164053652_);fill:#f0816a" d="M216.7 139.8c1.7 0 3.3.5 4.7 1.5.1.1.1.3.1.3v.1c0 .3-.2.5-.7.6l-1.5-.8c-1.1-.4-2-.5-2.7-.5-2.2 0-4.2 1-5.8 3.1-.8 1.4-1.2 2.7-1.2 4 0 2.6 1.2 4.7 3.7 6.2 1.1.6 2.2.9 3.3.9h.1c1.4 0 2.7-.4 4.1-1.3h.2c.4.1.5.3.5.5v.1c0 .5-.9 1-2.8 1.6-.6.2-1.2.3-1.9.3h-.2c-2.7 0-5-1.3-6.9-3.8-.9-1.5-1.3-3-1.3-4.5 0-2.9 1.3-5.2 3.9-7 1.5-.9 2.9-1.3 4.4-1.3"></path><defs><path id="SVGID_00000053508750672579048920000017890402657112949652_" d="M-59-48.9h459v261H-59z"></path></defs><clipPath id="SVGID_00000088837300564482379250000016798377656505368505_"><use xlink:href="#SVGID_00000053508750672579048920000017890402657112949652_" style="overflow:visible"></use></clipPath><path style="clip-path:url(#SVGID_00000088837300564482379250000016798377656505368505_);fill:#f0816a" d="M232.7 139.8c2.8 0 5.1 1.3 7 3.9.8 1.5 1.3 2.9 1.3 4.4 0 2.8-1.3 5.1-3.8 6.9-1.4.9-2.9 1.4-4.4 1.4h-.2c-2.8 0-5.2-1.3-7-4-.8-1.3-1.2-2.8-1.2-4.3 0-2.6 1.2-4.9 3.5-6.7 1.5-1.1 3.1-1.6 4.8-1.6m-7.1 8.4c0 2.3 1 4.2 3 5.8 1.3.9 2.6 1.3 4 1.3h.2c2.2 0 4.1-1 5.7-3 .9-1.3 1.3-2.7 1.3-4.2 0-2.6-1.2-4.6-3.5-6.1-1.2-.7-2.4-1-3.6-1-2.4 0-4.3 1-5.8 3.1-.9 1.1-1.3 2.5-1.3 4.1"></path><defs><path id="SVGID_00000124883967446445194470000005897963996517177991_" d="M-59-48.9h459v261H-59z"></path></defs><clipPath id="SVGID_00000128471872739272429910000008653916860632937654_"><use xlink:href="#SVGID_00000124883967446445194470000005897963996517177991_" style="overflow:visible"></use></clipPath><path style="clip-path:url(#SVGID_00000128471872739272429910000008653916860632937654_);fill:#f0816a" d="M244.2 139.8h.2c.3 0 .5.3.7 1l5.9 13.3c.4-.4 1.8-3.6 4.4-9.4l2.2-4.7c.1-.1.2-.1.3-.1h.2c.3 0 .4.2.5.7v15.2c-.1.4-.3.6-.6.6-.4-.1-.6-.2-.6-.5v-11.6h-.5c-3.4 7.8-5.2 11.7-5.3 11.9-.2.1-.3.2-.5.2-.4 0-.8-.6-1.1-1.7l-4.6-10.3h-.5v11.5c0 .3-.2.5-.6.5-.3 0-.5-.2-.6-.6v-15.2c.1-.6.3-.8.5-.8"></path><defs><path id="SVGID_00000077322939846224772670000017594940318381300659_" d="M-59-48.9h459v261H-59z"></path></defs><clipPath id="SVGID_00000183965708655085496330000017763499877455627957_"><use xlink:href="#SVGID_00000077322939846224772670000017594940318381300659_" style="overflow:visible"></use></clipPath><path style="clip-path:url(#SVGID_00000183965708655085496330000017763499877455627957_);fill:#f0816a" d="M262.1 139.8h.2c.3 0 .5.3.7 1l5.9 13.3c.4-.4 1.8-3.6 4.4-9.4l2.2-4.7c.1-.1.2-.1.3-.1h.2c.3 0 .4.2.5.7v15.2c-.1.4-.3.6-.6.6-.4-.1-.6-.2-.6-.5v-11.6h-.5c-3.4 7.8-5.2 11.7-5.3 11.9-.2.1-.3.2-.5.2-.4 0-.8-.6-1.1-1.7l-4.6-10.3h-.5v11.5c0 .3-.2.5-.6.5-.3 0-.5-.2-.6-.6v-15.2c0-.6.2-.8.5-.8"></path><defs><path id="SVGID_00000107554541137216324110000005946125868719183534_" d="M-59-48.9h459v261H-59z"></path></defs><clipPath id="SVGID_00000179615913713502544870000004568898428101491351_"><use xlink:href="#SVGID_00000107554541137216324110000005946125868719183534_" style="overflow:visible"></use></clipPath><path style="clip-path:url(#SVGID_00000179615913713502544870000004568898428101491351_);fill:#f0816a" d="M279.6 139.8h.1c.4.1.5.2.5.4v9.6c0 2.2.6 3.7 1.9 4.4.8.6 1.7.9 2.7.9 1.9 0 3.3-1 4.3-2.9.2-.6.3-1.2.3-1.9v-10c.1-.4.2-.6.5-.6h.1c.4.1.5.2.5.5v10.5c0 1.7-.8 3.2-2.5 4.5-1 .7-2.1 1-3.1 1h-.3c-1.8 0-3.3-.9-4.6-2.6-.6-.9-.9-2.1-.9-3.5v-9.7c.1-.4.3-.6.5-.6"></path><defs><path id="SVGID_00000055670303453933237470000009483042805663246993_" d="M-59-48.9h459v261H-59z"></path></defs><clipPath id="SVGID_00000155124723952585417330000004455371267252437162_"><use xlink:href="#SVGID_00000055670303453933237470000009483042805663246993_" style="overflow:visible"></use></clipPath><path style="clip-path:url(#SVGID_00000155124723952585417330000004455371267252437162_);fill:#f0816a" d="M293.6 139.8h.2c.3 0 .5.3.7.8.5.5 4 5.1 10.5 13.6v-13.9c.1-.4.2-.5.5-.5h.1c.3 0 .5.2.5.6v15.4c0 .3-.2.5-.7.6-.2 0-.7-.5-1.3-1.5l-9.9-12.7v13.6c0 .3-.2.4-.6.5-.3 0-.5-.2-.6-.6v-15.1c.2-.5.3-.8.6-.8"></path><defs><path id="SVGID_00000116935103090016601390000017507516361612074388_" d="M-59-48.9h459v261H-59z"></path></defs><clipPath id="SVGID_00000041977468345294376490000014948052311876800187_"><use xlink:href="#SVGID_00000116935103090016601390000017507516361612074388_" style="overflow:visible"></use></clipPath><path style="clip-path:url(#SVGID_00000041977468345294376490000014948052311876800187_);fill:#f0816a" d="M310.1 139.8h-.1 9.2c.3 0 .5.2.6.7-.1.4-.3.5-.7.5h-8.6v6.7h6.4c.2 0 .4.2.5.6 0 .2-.2.4-.5.6h-6.4v6.4h8.8c.2 0 .4.2.5.6-.1.4-.3.5-.5.5h-9.4c-.4-.1-.6-.3-.6-.6v-15.5c0-.4.3-.6.8-.5z"></path><defs><path id="SVGID_00000168811601598499088480000007726460738977655228_" d="M-59-48.9h459v261H-59z"></path></defs><clipPath id="SVGID_00000124846519102449015860000012443501029086180995_"><use xlink:href="#SVGID_00000168811601598499088480000007726460738977655228_" style="overflow:visible"></use></clipPath><path style="clip-path:url(#SVGID_00000124846519102449015860000012443501029086180995_);fill:#f0816a" d="M326.7 139.8c1.4 0 2.5.6 3.4 1.8v.3c0 .2-.2.4-.6.4-.1 0-.5-.3-1-.9-.6-.4-1.2-.6-1.7-.6h-.3c-1.1 0-2 .6-2.5 1.8-.1.3-.2.6-.2.9v.4c0 1.3.8 2.2 2.3 2.8 1 0 2 .4 3.1 1.3 1.1 1.1 1.6 2.2 1.6 3.5 0 1.6-.7 2.9-2 3.9-.8.6-1.7.9-2.8.9-1.6 0-3-.7-4-2.1l-.1-.3c.1-.4.3-.6.6-.6.2 0 .6.3 1 .9.8.6 1.6.9 2.3.9h.4c1.3 0 2.4-.8 3.2-2.2.1-.5.2-.9.2-1.1v-.5c0-1.3-.7-2.4-2.2-3.2l-2.3-.6c-1.6-.9-2.4-2.1-2.4-3.6v-.3c0-1.5.8-2.6 2.4-3.5.5-.2 1-.3 1.6-.3"></path><defs><path id="SVGID_00000145053853386219776810000005477474186943231132_" d="M-59-48.9h459v261H-59z"></path></defs><clipPath id="SVGID_00000009553186891854070250000012758893492238791102_"><use xlink:href="#SVGID_00000145053853386219776810000005477474186943231132_" style="overflow:visible"></use></clipPath><path style="clip-path:url(#SVGID_00000009553186891854070250000012758893492238791102_);fill:#6a9199" d="M136.6 19.1h7.6c2.8 0 5.1 1.4 7.1 4.3.7 1.5 1.1 2.8 1.1 3.9v.6c0 2.6-1.2 4.8-3.5 6.7-1.6 1.1-3.1 1.6-4.6 1.6H138v12.3c0 .5-.4.8-1.1.9-.5 0-.9-.4-1-1.2v-28c0-.7.3-1.1.7-1.1m1.3 2.1v12.9h5.7c3 0 5.1-1.4 6.2-4.3.2-.6.4-1.3.4-2.2 0-2.7-1.4-4.6-4.1-5.9-.7-.3-1.5-.5-2.4-.5h-5.8z"></path><defs><path id="SVGID_00000146483025722375494640000015656609429983187842_" d="M-59-48.9h459v261H-59z"></path></defs><clipPath id="SVGID_00000014601168761841788820000010318472278247388039_"><use xlink:href="#SVGID_00000146483025722375494640000015656609429983187842_" style="overflow:visible"></use></clipPath><path style="clip-path:url(#SVGID_00000014601168761841788820000010318472278247388039_);fill:#6a9199" d="M159.6 19.2h.4c.5 0 .9.4 1.2 1.3l7.8 11.6h.7c5.5-8.3 8.3-12.5 8.5-12.7l.4-.2h.5c.4 0 .7.4.9 1.1 0 .3-.9 1.7-2.7 4.2l-6.8 10.2v13.5c-.1.9-.4 1.3-.9 1.3h-.3c-.5 0-.8-.3-.9-.9V35.1c0-.3-1.2-2.3-3.6-5.8l-5.8-8.8v-.3c0-.6.2-1 .6-1"></path><defs><path id="SVGID_00000047749141794023325940000016506553876073628320_" d="M-59-48.9h459v261H-59z"></path></defs><clipPath id="SVGID_00000126323077421815595930000011119460586932543165_"><use xlink:href="#SVGID_00000047749141794023325940000016506553876073628320_" style="overflow:visible"></use></clipPath><path style="clip-path:url(#SVGID_00000126323077421815595930000011119460586932543165_);fill:#6a9199" d="M186.9 19.2h6.9c2.7 0 5 1.5 6.7 4.4.6 1.1.8 2.3.8 3.5v.3c0 2.7-1.3 4.9-4 6.6l-1.3.7c5.2 8.9 7.8 13.4 7.8 13.5v.4c0 .5-.4.8-1.1.9-.6 0-1.2-.8-2-2.5l-7-11.9h-5.6v13.5c0 .5-.4.8-1.1.9-.5 0-.9-.4-1-1.2V20.5c.1-.9.4-1.3.9-1.3m1.3 2v11.7h5.3c2.9 0 4.8-1.6 5.7-4.7l.1-.7v-.7c0-2.3-1.3-4.1-3.8-5.2-.7-.2-1.8-.4-3.3-.4h-4z"></path><defs><path id="SVGID_00000067207705651139430860000006720303515895532722_" d="M-59-48.9h459v261H-59z"></path></defs><clipPath id="SVGID_00000108299318111243828360000017193307239253008040_"><use xlink:href="#SVGID_00000067207705651139430860000006720303515895532722_" style="overflow:visible"></use></clipPath><path style="clip-path:url(#SVGID_00000108299318111243828360000017193307239253008040_);fill:#6a9199" d="M210.1 19.3h-.2 16.3l.3-.1c.6 0 .9.4 1.1 1.2-.1.6-.6 1-1.3 1h-15.7v12.3h10.5l1.2-.1c.4 0 .7.4.9 1.2 0 .4-.3.8-.9 1.1l-1.5-.1h-10.2v11.7h16.1c.5 0 .7.4.8 1.1-.2.7-.5 1-.9 1h-17.1c-.7-.1-1.1-.5-1.1-1V20.3c.2-.7.8-1.1 1.7-1zm8.3-8.8c.8.1 1.2.5 1.2 1.1 0 .3-.6 1.2-1.9 2.5-.8 1.1-1.3 1.7-1.6 1.7h-.5c-.5 0-.7-.4-.9-1.2 0-.2.8-1.3 2.5-3.2.4-.6.8-.9 1.2-.9"></path><defs><path id="SVGID_00000100348216899145654550000009430982707592426156_" d="M-59-48.9h459v261H-59z"></path></defs><clipPath id="SVGID_00000140705864178043861540000000239766275276302472_"><use xlink:href="#SVGID_00000100348216899145654550000009430982707592426156_" style="overflow:visible"></use></clipPath><path style="clip-path:url(#SVGID_00000140705864178043861540000000239766275276302472_);fill:#6a9199" d="M234.4 19.3h.3c.5 0 .9.5 1.4 1.4.8.9 7.3 9.3 19.3 25V20.2c.1-.7.4-1 .9-1h.2c.5 0 .8.4.9 1.1v28.1c0 .6-.4 1-1.2 1.1-.4 0-1.2-.9-2.4-2.7l-18.2-23.3v24.9c0 .5-.4.8-1.1.9-.5 0-.9-.4-1-1.1V20.5c.2-.8.5-1.2.9-1.2"></path><defs><path id="SVGID_00000127739303963476940610000001848766618323749006_" d="M-59-48.9h459v261H-59z"></path></defs><clipPath id="SVGID_00000088816313137680906550000011893175308299602322_"><use xlink:href="#SVGID_00000127739303963476940610000001848766618323749006_" style="overflow:visible"></use></clipPath><path style="clip-path:url(#SVGID_00000088816313137680906550000011893175308299602322_);fill:#6a9199" d="M265.3 19.3h-.2 16.3l.3-.1c.6 0 .9.4 1.1 1.2-.1.6-.6 1-1.3 1h-15.7v12.3h10.5l1.2-.1c.4 0 .7.4.9 1.2 0 .4-.3.8-.9 1.1l-1.5-.1h-10.2v11.7h16.1c.5 0 .7.4.8 1.1-.2.7-.5 1-.9 1h-17.1c-.7-.1-1.1-.5-1.1-1V20.3c.2-.7.7-1.1 1.7-1zm8.3-8.8c.8.1 1.2.5 1.2 1.1 0 .3-.6 1.2-1.9 2.5-.8 1.1-1.3 1.7-1.6 1.7h-.5c-.5 0-.7-.4-.9-1.2 0-.2.8-1.3 2.5-3.2.4-.6.8-.9 1.2-.9"></path><defs><path id="SVGID_00000065781424627515688490000002656874501619056546_" d="M-59-48.9h459v261H-59z"></path></defs><clipPath id="SVGID_00000010999349733437566110000007089407941035092390_"><use xlink:href="#SVGID_00000065781424627515688490000002656874501619056546_" style="overflow:visible"></use></clipPath><path style="clip-path:url(#SVGID_00000010999349733437566110000007089407941035092390_);fill:#6a9199" d="M290.9 19.1h-.2 16.4l.3-.1c.6 0 .9.4 1.1 1.2-.1.7-.6 1-1.3 1h-15.8v12.3H302l1.2-.1c.4 0 .7.4.9 1.2 0 .4-.3.8-.9 1.1l-1.6-.1h-10.2v11.8h16.2c.5 0 .7.4.9 1.2-.2.7-.5 1-.9 1h-17.2c-.7-.1-1.1-.5-1.1-1V20.2c.1-.7.6-1.1 1.6-1.1z"></path><defs><path id="SVGID_00000109728391713698130170000006315817209798925189_" d="M-59-48.9h459v261H-59z"></path></defs><clipPath id="SVGID_00000123430621596437590600000015451183254463139992_"><use xlink:href="#SVGID_00000109728391713698130170000006315817209798925189_" style="overflow:visible"></use></clipPath><path style="clip-path:url(#SVGID_00000123430621596437590600000015451183254463139992_);fill:#6a9199" d="M323.3 19.1c2.5 0 4.6 1.1 6.3 3.4v.6c0 .4-.4.7-1.1.8-.2 0-.8-.5-1.8-1.6-1.1-.7-2.1-1.1-3.1-1.1h-.6c-2.1 0-3.6 1.1-4.7 3.2-.3.5-.4 1.1-.4 1.7v.7c0 2.4 1.4 4.1 4.3 5.2 1.8 0 3.7.8 5.7 2.5 1.9 2 2.9 4.1 2.9 6.5 0 2.9-1.2 5.2-3.7 7.1-1.5 1-3.2 1.6-5 1.6-3 0-5.4-1.3-7.4-3.8l-.1-.5c.1-.7.5-1 1-1 .4 0 1 .5 1.9 1.6 1.5 1.1 2.9 1.6 4.1 1.6h.7c2.4 0 4.4-1.4 5.9-4.1.2-.9.4-1.6.4-2v-.8c0-2.4-1.4-4.4-4.1-5.9l-4.3-1.2c-3-1.7-4.4-3.9-4.4-6.7v-.8c0-2.7 1.5-4.8 4.4-6.4 1.1-.4 2.1-.6 3.1-.6"></path><defs><path id="SVGID_00000072280957465531433120000009910301024596792450_" d="M-59-48.9h459v261H-59z"></path></defs><clipPath id="SVGID_00000063595616047124904360000011442185405820233865_"><use xlink:href="#SVGID_00000072280957465531433120000009910301024596792450_" style="overflow:visible"></use></clipPath><path style="clip-path:url(#SVGID_00000063595616047124904360000011442185405820233865_);fill:#6a9199" d="M137 60.4c.6 0 1.2 1 1.7 3.1l8.3 22h.8l9.2-24.7c.3-.3.6-.4.9-.4h.1c.5 0 .9.4 1 1.1l-10.4 28.1c-.2.8-.6 1.3-1.1 1.3h-.1c-.7 0-1.3-.9-1.7-2.8-6.6-17.4-9.8-26.2-9.8-26.4v-.2c-.1-.6.3-.9 1.1-1.1"></path><defs><path id="SVGID_00000122712791538902383210000006954830596600238505_" d="M-59-48.9h459v261H-59z"></path></defs><clipPath id="SVGID_00000161596632407711281930000014292078545102407555_"><use xlink:href="#SVGID_00000122712791538902383210000006954830596600238505_" style="overflow:visible"></use></clipPath><path style="clip-path:url(#SVGID_00000161596632407711281930000014292078545102407555_);fill:#6a9199" d="M175.6 60.7c.7 0 1.3.9 1.7 2.7 6.6 17.3 10 26.1 10 26.4v.2c0 .5-.3.8-1 .9-.7 0-1.2-.8-1.5-2.4l-3.9-10h-10.4l-4.6 12.1c-.2.2-.5.3-.7.3h-.1c-.7-.1-1.1-.5-1.1-1l2.8-7.5c4.9-12.8 7.5-19.8 7.9-21.2.4-.3.7-.5.9-.5m-.3 5.2-3.9 10.5h8.4v-.7l-3.7-9.7h-.8v-.1z"></path><defs><path id="SVGID_00000030460734639360291380000006061695834708875964_" d="M-59-48.9h459v261H-59z"></path></defs><clipPath id="SVGID_00000060753029139953830920000016490379392372044733_"><use xlink:href="#SVGID_00000030460734639360291380000006061695834708875964_" style="overflow:visible"></use></clipPath><path style="clip-path:url(#SVGID_00000060753029139953830920000016490379392372044733_);fill:#6a9199" d="M198.7 60.6h.3c.7.1 1 .4 1 .8v27.4h14c.6 0 .9.4 1 1.1-.2.7-.5 1-1 1h-15.1c-.5 0-.9-.4-1-1.2V61.8c.1-.8.4-1.2.8-1.2"></path><defs><path id="SVGID_00000104671225632541447600000010354846981221514141_" d="M-59-48.9h459v261H-59z"></path></defs><clipPath id="SVGID_00000039101144305779516220000008633269965269067950_"><use xlink:href="#SVGID_00000104671225632541447600000010354846981221514141_" style="overflow:visible"></use></clipPath><path style="clip-path:url(#SVGID_00000039101144305779516220000008633269965269067950_);fill:#6a9199" d="M227.4 60.6h.3c.7.1 1 .4 1 .8v27.4h14c.6 0 .9.4 1 1.1-.2.7-.5 1-1 1h-15.1c-.5 0-.9-.4-1-1.2V61.8c0-.8.3-1.2.8-1.2"></path><defs><path id="SVGID_00000111873399699449327110000011182227609635500942_" d="M-59-48.9h459v261H-59z"></path></defs><clipPath id="SVGID_00000031193721636373590690000006138613521209263535_"><use xlink:href="#SVGID_00000111873399699449327110000011182227609635500942_" style="overflow:visible"></use></clipPath><path style="clip-path:url(#SVGID_00000031193721636373590690000006138613521209263535_);fill:#6a9199" d="M255.7 60.7h-.2 16.3l.3-.1c.6 0 .9.4 1 1.2-.1.6-.6 1-1.3 1h-15.7v12.3h10.5l1.2-.1c.4 0 .7.4.9 1.2 0 .4-.3.8-.9 1.1l-1.5-.1h-10.2v11.7h16.1c.5 0 .7.4.8 1.1-.2.7-.5 1-.9 1H255c-.7-.1-1.1-.5-1.1-1V61.8c.3-.8.9-1.2 1.8-1.1zm8.3-8.8c.8.1 1.2.5 1.2 1.1 0 .3-.6 1.2-1.9 2.5-.8 1.1-1.3 1.7-1.6 1.7h-.5c-.5 0-.7-.4-.9-1.2 0-.2.8-1.3 2.5-3.2.4-.6.8-.9 1.2-.9"></path><defs><path id="SVGID_00000134936737386815580780000016535531815606510990_" d="M-59-48.9h459v261H-59z"></path></defs><clipPath id="SVGID_00000155841173729335873260000004456220703929859744_"><use xlink:href="#SVGID_00000134936737386815580780000016535531815606510990_" style="overflow:visible"></use></clipPath><path style="clip-path:url(#SVGID_00000155841173729335873260000004456220703929859744_);fill:#6a9199" d="M286.1 60.5h-.2 16.4l.3-.1c.6 0 .9.4 1 1.2-.1.7-.6 1-1.3 1h-15.8v12.3H297l1.2-.1c.4 0 .7.4.9 1.2 0 .4-.3.8-.9 1.1l-1.6-.1h-10.2v11.8h16.1c.5 0 .7.4.9 1.2-.2.7-.5 1-.9 1h-17.2c-.7-.1-1.1-.5-1.1-1V61.7c.4-.8.9-1.2 1.9-1.2z"></path><defs><path id="SVGID_00000103243500172914764050000006776388000682624146_" d="M-59-48.9h459v261H-59z"></path></defs><clipPath id="SVGID_00000164509718484172124700000010143951324236892332_"><use xlink:href="#SVGID_00000103243500172914764050000006776388000682624146_" style="overflow:visible"></use></clipPath><path style="clip-path:url(#SVGID_00000164509718484172124700000010143951324236892332_);fill:#6a9199" d="M323.3 60.5c2.5 0 4.6 1.1 6.3 3.4v.6c0 .4-.4.7-1.1.8-.2 0-.8-.5-1.8-1.6-1.1-.7-2.1-1.1-3.1-1.1h-.6c-2.1 0-3.6 1.1-4.7 3.2-.3.5-.4 1.1-.4 1.7v.7c0 2.4 1.4 4.1 4.3 5.2 1.8 0 3.7.8 5.7 2.5 1.9 2 2.9 4.1 2.9 6.5 0 2.9-1.2 5.2-3.7 7.1-1.5 1-3.2 1.6-5 1.6-3 0-5.4-1.3-7.4-3.8l-.1-.5c.1-.7.5-1 1-1 .4 0 1 .5 1.9 1.6 1.5 1.1 2.9 1.6 4.1 1.6h.7c2.4 0 4.4-1.4 5.9-4.1.2-.9.4-1.6.4-2v-.8c0-2.4-1.4-4.4-4.1-5.9l-4.3-1.2c-3-1.7-4.4-3.9-4.4-6.7v-.6c0-2.7 1.5-4.8 4.4-6.4 1.1-.6 2.1-.8 3.1-.8"></path><defs><path id="SVGID_00000009576673233007920010000006270990675412464527_" d="M-59-48.9h459v261H-59z"></path></defs><clipPath id="SVGID_00000133490430839940885140000010237884884020179634_"><use xlink:href="#SVGID_00000009576673233007920010000006270990675412464527_" style="overflow:visible"></use></clipPath><path style="clip-path:url(#SVGID_00000133490430839940885140000010237884884020179634_);fill:#6a9199" d="M137.4 101.7h-.2 4.3l.9-.1c4.5 0 8.5 2 11.9 6 2.1 2.8 3.2 5.9 3.2 9.4 0 4.9-2.1 8.9-6.4 12.3-2.7 1.9-5.6 2.8-8.6 2.8h-5.6c-.7-.1-1.1-.5-1.1-1v-28.3c.1-.8.6-1.1 1.6-1.1zm.5 2v26.2h4.1c5.5 0 9.6-2.7 12.2-8 .7-1.8 1-3.5 1-5.2 0-4-1.8-7.5-5.3-10.4-2.2-1.8-5.4-2.6-9.7-2.6h-2.3z"></path><defs><path id="SVGID_00000042003632873961685170000016155588807514381990_" d="M-59-48.9h459v261H-59z"></path></defs><clipPath id="SVGID_00000067921944382585318930000010458106939890849673_"><use xlink:href="#SVGID_00000042003632873961685170000016155588807514381990_" style="overflow:visible"></use></clipPath><path style="clip-path:url(#SVGID_00000067921944382585318930000010458106939890849673_);fill:#6a9199" d="M163.2 101.7h-.2 16.4l.3-.1c.6 0 .9.4 1.1 1.2-.1.7-.6 1-1.3 1h-15.8v12.3h10.5l1.2-.1c.4 0 .7.4.9 1.2 0 .4-.3.8-.9 1.1l-1.6-.1h-10.2V130H180c.5 0 .7.4.9 1.2-.2.7-.5 1-.9 1h-17.2c-.7-.1-1.1-.5-1.1-1v-28.3c.1-.9.6-1.2 1.5-1.2z"></path><defs><path id="SVGID_00000168814623696228481060000000271740173147213723_" d="M-59-48.9h459v261H-59z"></path></defs><clipPath id="SVGID_00000144296287966104569830000004805568394533359252_"><use xlink:href="#SVGID_00000168814623696228481060000000271740173147213723_" style="overflow:visible"></use></clipPath><path style="clip-path:url(#SVGID_00000144296287966104569830000004805568394533359252_);fill:#6a9199" d="M193.2 101.7c2.5 0 4.6 1.1 6.3 3.4v.6c0 .4-.4.7-1.1.8-.2 0-.8-.5-1.8-1.6-1.1-.7-2.1-1.1-3.1-1.1h-.5c-2.1 0-3.6 1.1-4.7 3.2-.3.5-.4 1.1-.4 1.7v.7c0 2.4 1.4 4.1 4.3 5.2 1.8 0 3.7.8 5.7 2.5 1.9 2 2.9 4.1 2.9 6.5 0 2.9-1.2 5.2-3.7 7.1-1.5 1-3.2 1.6-5 1.6-3 0-5.4-1.3-7.4-3.8l-.1-.5c.1-.7.5-1 1-1 .4 0 1 .5 1.9 1.6 1.5 1.1 2.9 1.6 4.1 1.6h.7c2.4 0 4.4-1.4 5.9-4.1.2-.9.4-1.6.4-2v-.8c0-2.4-1.4-4.4-4.1-5.9l-4.3-1.2c-3-1.7-4.5-3.9-4.5-6.7v-.6c0-2.7 1.5-4.8 4.4-6.4 1.1-.6 2.1-.8 3.1-.8"></path><defs><path id="SVGID_00000052078958918849776130000012533844601430635909_" d="M-59-48.9h459v261H-59z"></path></defs><clipPath id="SVGID_00000003084329140705714970000000973546893108692371_"><use xlink:href="#SVGID_00000052078958918849776130000012533844601430635909_" style="overflow:visible"></use></clipPath><path style="clip-path:url(#SVGID_00000003084329140705714970000000973546893108692371_);fill:#6a9199" d="M230 101.7c3.2 0 6.1.9 8.6 2.7.2.2.3.5.3.7v.1c0 .5-.4.9-1.2 1-.1 0-1-.5-3-1.4-1.4-.5-2.7-.8-3.9-.8h-1.3c-3.2 0-6.3 1.6-9.3 4.7-1.9 2.6-2.9 5.3-2.9 8v.3c0 4.5 2.1 8.1 6.2 11 2.2 1.2 4.3 1.8 6.5 1.8h.3c2.1 0 4.4-.6 6.7-1.9v-8.4h-6.5c-.7-.1-1.1-.5-1.1-1 .1-.7.5-1.1 1-1.1h7.7c.5 0 .8.4.9 1.1v9.1c0 1.1-.2 1.8-.7 2-2.7 1.6-5.4 2.4-8 2.4h-.5c-5 0-9.2-2.3-12.6-7-1.6-2.6-2.4-5.4-2.4-8.2 0-5.1 2.3-9.3 6.8-12.6 3.1-1.6 5.8-2.5 8.4-2.5"></path><defs><path id="SVGID_00000175292587727594922110000003653752112174960527_" d="M-59-48.9h459v261H-59z"></path></defs><clipPath id="SVGID_00000121977227060848814280000014927387845745459391_"><use xlink:href="#SVGID_00000175292587727594922110000003653752112174960527_" style="overflow:visible"></use></clipPath><path style="clip-path:url(#SVGID_00000121977227060848814280000014927387845745459391_);fill:#6a9199" d="M253.7 101.9c.7 0 1.3.9 1.7 2.7 6.6 17.3 10 26.1 10 26.4v.2c0 .5-.4.8-1.1.9-.7 0-1.2-.8-1.5-2.4l-3.9-10h-10.4l-4.6 12.1c-.2.2-.5.3-.7.3h-.1c-.7-.1-1.1-.5-1.1-1l2.8-7.5c4.9-12.8 7.6-19.8 8-21.2.3-.3.6-.5.9-.5m-.4 5.2-3.9 10.5h8.4v-.7l-3.7-9.7h-.8v-.1z"></path><defs><path id="SVGID_00000112621155787059827090000005976978146280559549_" d="M-59-48.9h459v261H-59z"></path></defs><clipPath id="SVGID_00000129173060536720286820000013044325811522450854_"><use xlink:href="#SVGID_00000112621155787059827090000005976978146280559549_" style="overflow:visible"></use></clipPath><path style="clip-path:url(#SVGID_00000129173060536720286820000013044325811522450854_);fill:#6a9199" d="M265.5 101.6c.6 0 1.2 1 1.7 3.1l8.3 22h.8l9.2-24.7c.3-.3.6-.4.9-.4h.1c.5 0 .9.4 1 1.1l-10.4 28.1c-.2.8-.6 1.3-1.1 1.3h-.1c-.7 0-1.3-.9-1.7-2.8-6.6-17.4-9.9-26.2-9.9-26.4v-.2c0-.6.4-1 1.2-1.1"></path><defs><path id="SVGID_00000170270448225804949330000005235202151465212309_" d="M-59-48.9h459v261H-59z"></path></defs><clipPath id="SVGID_00000160887816089015089040000004607221027518043553_"><use xlink:href="#SVGID_00000170270448225804949330000005235202151465212309_" style="overflow:visible"></use></clipPath><path style="clip-path:url(#SVGID_00000160887816089015089040000004607221027518043553_);fill:#6a9199" d="M293.3 101.7h-.2 16.4l.3-.1c.6 0 .9.4 1.1 1.2-.1.7-.6 1-1.3 1h-15.8v12.3h10.5l1.2-.1c.4 0 .7.4.9 1.2 0 .4-.3.8-.9 1.1l-1.6-.1h-10.2V130h16.2c.5 0 .7.4.9 1.2-.2.7-.5 1-.9 1h-17.2c-.7-.1-1.1-.5-1.1-1v-28.3c.2-.9.8-1.2 1.7-1.2z"></path><defs><path id="SVGID_00000067948544736931324960000013824463857491935107_" d="M-59-48.9h459v261H-59z"></path></defs><clipPath id="SVGID_00000098188441081013352310000015853260953595330479_"><use xlink:href="#SVGID_00000067948544736931324960000013824463857491935107_" style="overflow:visible"></use></clipPath><path style="clip-path:url(#SVGID_00000098188441081013352310000015853260953595330479_);fill:#6a9199" d="M323.2 101.7c2.5 0 4.6 1.1 6.3 3.4v.6c0 .4-.4.7-1.1.8-.2 0-.8-.5-1.8-1.6-1.1-.7-2.1-1.1-3.1-1.1h-.5c-2.1 0-3.6 1.1-4.7 3.2-.3.5-.4 1.1-.4 1.7v.7c0 2.4 1.4 4.1 4.3 5.2 1.8 0 3.7.8 5.7 2.5 1.9 2 2.9 4.1 2.9 6.5 0 2.9-1.2 5.2-3.7 7.1-1.5 1-3.2 1.6-5 1.6-3 0-5.4-1.3-7.4-3.8l-.1-.5c.1-.7.5-1 1-1 .4 0 1 .5 1.9 1.6 1.5 1.1 2.9 1.6 4.1 1.6h.7c2.4 0 4.4-1.4 5.9-4.1.2-.9.4-1.6.4-2v-.8c0-2.4-1.4-4.4-4.1-5.9l-4.3-1.2c-3-1.7-4.5-3.9-4.5-6.7v-.6c0-2.7 1.5-4.8 4.4-6.4 1.2-.6 2.2-.8 3.1-.8"></path></svg> 